<svg width="213" height="47" viewBox="0 0 213 47" fill="none" xmlns="http://www.w3.org/2000/svg">
<mask id="path-1-outside-1_2_59" maskUnits="userSpaceOnUse" x="-2" y="-2" width="217" height="51" fill="black">
<rect fill="white" x="-2" y="-2" width="217" height="51"/>
<path d="M0.526 5.104C0.526 4.03733 0.931334 3.12 1.742 2.352C2.59533 1.584 3.61933 1.2 4.814 1.2H33.806C33.806 3.76 33.358 5.63733 32.462 6.832C31.6087 7.984 30.2007 8.56 28.238 8.56H9.102V19.376H26.126C26.126 21.936 25.678 23.8133 24.782 25.008C23.9287 26.16 22.5207 26.736 20.558 26.736H9.102V40.496C9.102 42.6293 8.41933 44.1867 7.054 45.168C5.68867 46.1067 3.51267 46.576 0.526 46.576V5.104ZM40.963 10.416C39.427 10.416 38.147 9.968 37.123 9.072C36.1417 8.13333 35.651 6.93866 35.651 5.488C35.651 4.08 36.1417 2.928 37.123 2.032C38.147 1.09333 39.427 0.623997 40.963 0.623997C42.499 0.623997 43.7577 1.09333 44.739 2.032C45.763 2.928 46.275 4.08 46.275 5.488C46.275 6.93866 45.763 8.13333 44.739 9.072C43.7577 9.968 42.499 10.416 40.963 10.416ZM36.931 18.288C36.931 16.5387 37.5923 15.3013 38.915 14.576C40.2377 13.808 42.243 13.424 44.931 13.424V41.712C44.931 43.4187 44.2697 44.656 42.947 45.424C41.6243 46.192 39.619 46.576 36.931 46.576V18.288ZM53.8385 19.568C53.8385 17.6053 54.4572 16.0907 55.6945 15.024C56.9745 13.9573 58.8945 13.424 61.4545 13.424V17.264C60.9425 17.8613 60.4305 18.544 59.9185 19.312L60.3025 19.568C61.5825 17.648 63.2252 16.1547 65.2305 15.088C67.2358 13.9787 69.4545 13.424 71.8865 13.424C74.0625 13.424 75.9825 13.9147 77.6465 14.896C79.3105 15.8773 80.5905 17.2213 81.4865 18.928C82.4252 20.6347 82.8945 22.5547 82.8945 24.688V41.712C82.8945 43.4187 82.2332 44.656 80.9105 45.424C79.5878 46.192 77.5825 46.576 74.8945 46.576V25.84C74.8945 24.2187 74.4038 22.896 73.4225 21.872C72.4838 20.848 71.0972 20.336 69.2625 20.336C67.0865 20.336 65.2945 21.0187 63.8865 22.384C62.4785 23.7067 61.7745 25.3707 61.7745 27.376V41.712C61.7745 43.4187 61.1345 44.656 59.8545 45.424C58.5745 46.192 56.5692 46.576 53.8385 46.576V19.568ZM104.071 46.576C100.615 46.576 98.0545 45.5733 96.3905 43.568C94.7265 41.5627 93.8945 38.9813 93.8945 35.824V19.952H87.3025C87.3025 17.9467 87.6865 16.4533 88.4545 15.472C89.2225 14.4907 90.2465 14 91.5265 14H94.0225V8.688C94.0225 6.93867 94.6625 5.70133 95.9425 4.976C97.2225 4.208 99.1638 3.824 101.767 3.824V14H110.279C110.279 16.1333 109.873 17.6693 109.063 18.608C108.252 19.504 106.951 19.952 105.159 19.952H101.895V35.504C101.895 36.9973 102.172 38.064 102.727 38.704C103.324 39.344 104.327 39.664 105.735 39.664C107.228 39.664 108.721 39.2587 110.215 38.448C110.641 38.832 110.983 39.3227 111.239 39.92C111.495 40.4747 111.623 41.0507 111.623 41.648C111.623 42.928 110.961 44.08 109.639 45.104C108.316 46.0853 106.46 46.576 104.071 46.576ZM129.916 46.576C127.27 46.576 124.86 46.064 122.684 45.04C120.508 43.9733 118.78 42.544 117.5 40.752C116.22 38.9173 115.58 36.8693 115.58 34.608V26.096C115.58 23.7067 116.241 21.552 117.564 19.632C118.886 17.712 120.636 16.1973 122.812 15.088C125.03 13.9787 127.42 13.424 129.98 13.424C132.497 13.424 134.801 13.9573 136.892 15.024C139.025 16.048 140.71 17.4987 141.948 19.376C143.185 21.2107 143.804 23.3227 143.804 25.712V29.296C143.804 30.2347 143.441 31.024 142.716 31.664C142.033 32.304 141.158 32.624 140.092 32.624H123.324V34.032C123.324 35.8667 123.878 37.36 124.988 38.512C126.097 39.664 127.761 40.24 129.98 40.24C132.113 40.24 133.692 39.7707 134.716 38.832C135.782 37.8933 136.316 36.6773 136.316 35.184C137.084 35.0987 137.617 35.056 137.916 35.056C139.494 35.056 140.732 35.4187 141.628 36.144C142.524 36.8267 142.972 37.808 142.972 39.088C142.972 40.3253 142.396 41.52 141.244 42.672C140.092 43.824 138.513 44.7627 136.508 45.488C134.502 46.2133 132.305 46.576 129.916 46.576ZM136.572 26.928V25.712C136.572 23.92 135.953 22.4693 134.716 21.36C133.478 20.2507 131.878 19.696 129.916 19.696C127.953 19.696 126.353 20.2507 125.116 21.36C123.921 22.4267 123.324 23.8773 123.324 25.712V26.928H136.572ZM163.724 46.576C160.95 46.576 158.497 46.0853 156.364 45.104C154.23 44.08 152.566 42.672 151.372 40.88C150.177 39.088 149.58 37.0613 149.58 34.8V25.84C149.58 23.408 150.177 21.2533 151.372 19.376C152.566 17.4987 154.23 16.048 156.364 15.024C158.497 13.9573 160.929 13.424 163.66 13.424C166.22 13.424 168.481 13.7867 170.444 14.512C172.449 15.2373 174.006 16.2613 175.116 17.584C176.225 18.864 176.78 20.3573 176.78 22.064C176.78 23.3867 176.268 24.4533 175.244 25.264C174.22 26.0747 172.876 26.48 171.212 26.48C170.742 26.48 170.401 26.4587 170.188 26.416C170.188 24.5813 169.59 23.1093 168.396 22C167.244 20.8907 165.729 20.336 163.852 20.336C161.974 20.336 160.438 20.8693 159.244 21.936C158.092 23.0027 157.516 24.4107 157.516 26.16V34.224C157.516 35.8453 158.113 37.168 159.308 38.192C160.502 39.1733 162.038 39.664 163.916 39.664C165.793 39.664 167.329 39.1093 168.524 38C169.718 36.848 170.316 35.3973 170.316 33.648C170.572 33.6053 170.934 33.584 171.404 33.584C173.068 33.584 174.412 33.968 175.436 34.736C176.46 35.504 176.972 36.5493 176.972 37.872C176.972 39.5787 176.396 41.0933 175.244 42.416C174.134 43.696 172.577 44.72 170.572 45.488C168.566 46.2133 166.284 46.576 163.724 46.576ZM183.089 6.768C183.089 4.80533 183.771 3.29066 185.137 2.224C186.502 1.15733 188.465 0.623997 191.025 0.623997V17.264C190.47 17.8613 189.958 18.544 189.489 19.312L189.873 19.568C192.817 15.472 196.571 13.424 201.137 13.424C203.313 13.424 205.233 13.9147 206.897 14.896C208.561 15.8773 209.841 17.2213 210.737 18.928C211.675 20.6347 212.145 22.5547 212.145 24.688V41.712C212.145 43.4187 211.483 44.656 210.161 45.424C208.838 46.192 206.833 46.576 204.145 46.576V25.84C204.145 24.2187 203.654 22.896 202.673 21.872C201.734 20.848 200.347 20.336 198.513 20.336C196.337 20.336 194.545 21.0187 193.137 22.384C191.729 23.7067 191.025 25.3707 191.025 27.376V41.712C191.025 43.4187 190.363 44.656 189.041 45.424C187.718 46.192 185.734 46.576 183.089 46.576V6.768Z"/>
</mask>
<path d="M0.526 5.104C0.526 4.03733 0.931334 3.12 1.742 2.352C2.59533 1.584 3.61933 1.2 4.814 1.2H33.806C33.806 3.76 33.358 5.63733 32.462 6.832C31.6087 7.984 30.2007 8.56 28.238 8.56H9.102V19.376H26.126C26.126 21.936 25.678 23.8133 24.782 25.008C23.9287 26.16 22.5207 26.736 20.558 26.736H9.102V40.496C9.102 42.6293 8.41933 44.1867 7.054 45.168C5.68867 46.1067 3.51267 46.576 0.526 46.576V5.104ZM40.963 10.416C39.427 10.416 38.147 9.968 37.123 9.072C36.1417 8.13333 35.651 6.93866 35.651 5.488C35.651 4.08 36.1417 2.928 37.123 2.032C38.147 1.09333 39.427 0.623997 40.963 0.623997C42.499 0.623997 43.7577 1.09333 44.739 2.032C45.763 2.928 46.275 4.08 46.275 5.488C46.275 6.93866 45.763 8.13333 44.739 9.072C43.7577 9.968 42.499 10.416 40.963 10.416ZM36.931 18.288C36.931 16.5387 37.5923 15.3013 38.915 14.576C40.2377 13.808 42.243 13.424 44.931 13.424V41.712C44.931 43.4187 44.2697 44.656 42.947 45.424C41.6243 46.192 39.619 46.576 36.931 46.576V18.288ZM53.8385 19.568C53.8385 17.6053 54.4572 16.0907 55.6945 15.024C56.9745 13.9573 58.8945 13.424 61.4545 13.424V17.264C60.9425 17.8613 60.4305 18.544 59.9185 19.312L60.3025 19.568C61.5825 17.648 63.2252 16.1547 65.2305 15.088C67.2358 13.9787 69.4545 13.424 71.8865 13.424C74.0625 13.424 75.9825 13.9147 77.6465 14.896C79.3105 15.8773 80.5905 17.2213 81.4865 18.928C82.4252 20.6347 82.8945 22.5547 82.8945 24.688V41.712C82.8945 43.4187 82.2332 44.656 80.9105 45.424C79.5878 46.192 77.5825 46.576 74.8945 46.576V25.84C74.8945 24.2187 74.4038 22.896 73.4225 21.872C72.4838 20.848 71.0972 20.336 69.2625 20.336C67.0865 20.336 65.2945 21.0187 63.8865 22.384C62.4785 23.7067 61.7745 25.3707 61.7745 27.376V41.712C61.7745 43.4187 61.1345 44.656 59.8545 45.424C58.5745 46.192 56.5692 46.576 53.8385 46.576V19.568ZM104.071 46.576C100.615 46.576 98.0545 45.5733 96.3905 43.568C94.7265 41.5627 93.8945 38.9813 93.8945 35.824V19.952H87.3025C87.3025 17.9467 87.6865 16.4533 88.4545 15.472C89.2225 14.4907 90.2465 14 91.5265 14H94.0225V8.688C94.0225 6.93867 94.6625 5.70133 95.9425 4.976C97.2225 4.208 99.1638 3.824 101.767 3.824V14H110.279C110.279 16.1333 109.873 17.6693 109.063 18.608C108.252 19.504 106.951 19.952 105.159 19.952H101.895V35.504C101.895 36.9973 102.172 38.064 102.727 38.704C103.324 39.344 104.327 39.664 105.735 39.664C107.228 39.664 108.721 39.2587 110.215 38.448C110.641 38.832 110.983 39.3227 111.239 39.92C111.495 40.4747 111.623 41.0507 111.623 41.648C111.623 42.928 110.961 44.08 109.639 45.104C108.316 46.0853 106.46 46.576 104.071 46.576ZM129.916 46.576C127.27 46.576 124.86 46.064 122.684 45.04C120.508 43.9733 118.78 42.544 117.5 40.752C116.22 38.9173 115.58 36.8693 115.58 34.608V26.096C115.58 23.7067 116.241 21.552 117.564 19.632C118.886 17.712 120.636 16.1973 122.812 15.088C125.03 13.9787 127.42 13.424 129.98 13.424C132.497 13.424 134.801 13.9573 136.892 15.024C139.025 16.048 140.71 17.4987 141.948 19.376C143.185 21.2107 143.804 23.3227 143.804 25.712V29.296C143.804 30.2347 143.441 31.024 142.716 31.664C142.033 32.304 141.158 32.624 140.092 32.624H123.324V34.032C123.324 35.8667 123.878 37.36 124.988 38.512C126.097 39.664 127.761 40.24 129.98 40.24C132.113 40.24 133.692 39.7707 134.716 38.832C135.782 37.8933 136.316 36.6773 136.316 35.184C137.084 35.0987 137.617 35.056 137.916 35.056C139.494 35.056 140.732 35.4187 141.628 36.144C142.524 36.8267 142.972 37.808 142.972 39.088C142.972 40.3253 142.396 41.52 141.244 42.672C140.092 43.824 138.513 44.7627 136.508 45.488C134.502 46.2133 132.305 46.576 129.916 46.576ZM136.572 26.928V25.712C136.572 23.92 135.953 22.4693 134.716 21.36C133.478 20.2507 131.878 19.696 129.916 19.696C127.953 19.696 126.353 20.2507 125.116 21.36C123.921 22.4267 123.324 23.8773 123.324 25.712V26.928H136.572ZM163.724 46.576C160.95 46.576 158.497 46.0853 156.364 45.104C154.23 44.08 152.566 42.672 151.372 40.88C150.177 39.088 149.58 37.0613 149.58 34.8V25.84C149.58 23.408 150.177 21.2533 151.372 19.376C152.566 17.4987 154.23 16.048 156.364 15.024C158.497 13.9573 160.929 13.424 163.66 13.424C166.22 13.424 168.481 13.7867 170.444 14.512C172.449 15.2373 174.006 16.2613 175.116 17.584C176.225 18.864 176.78 20.3573 176.78 22.064C176.78 23.3867 176.268 24.4533 175.244 25.264C174.22 26.0747 172.876 26.48 171.212 26.48C170.742 26.48 170.401 26.4587 170.188 26.416C170.188 24.5813 169.59 23.1093 168.396 22C167.244 20.8907 165.729 20.336 163.852 20.336C161.974 20.336 160.438 20.8693 159.244 21.936C158.092 23.0027 157.516 24.4107 157.516 26.16V34.224C157.516 35.8453 158.113 37.168 159.308 38.192C160.502 39.1733 162.038 39.664 163.916 39.664C165.793 39.664 167.329 39.1093 168.524 38C169.718 36.848 170.316 35.3973 170.316 33.648C170.572 33.6053 170.934 33.584 171.404 33.584C173.068 33.584 174.412 33.968 175.436 34.736C176.46 35.504 176.972 36.5493 176.972 37.872C176.972 39.5787 176.396 41.0933 175.244 42.416C174.134 43.696 172.577 44.72 170.572 45.488C168.566 46.2133 166.284 46.576 163.724 46.576ZM183.089 6.768C183.089 4.80533 183.771 3.29066 185.137 2.224C186.502 1.15733 188.465 0.623997 191.025 0.623997V17.264C190.47 17.8613 189.958 18.544 189.489 19.312L189.873 19.568C192.817 15.472 196.571 13.424 201.137 13.424C203.313 13.424 205.233 13.9147 206.897 14.896C208.561 15.8773 209.841 17.2213 210.737 18.928C211.675 20.6347 212.145 22.5547 212.145 24.688V41.712C212.145 43.4187 211.483 44.656 210.161 45.424C208.838 46.192 206.833 46.576 204.145 46.576V25.84C204.145 24.2187 203.654 22.896 202.673 21.872C201.734 20.848 200.347 20.336 198.513 20.336C196.337 20.336 194.545 21.0187 193.137 22.384C191.729 23.7067 191.025 25.3707 191.025 27.376V41.712C191.025 43.4187 190.363 44.656 189.041 45.424C187.718 46.192 185.734 46.576 183.089 46.576V6.768Z" fill="#2414FF"/>
<path d="M1.742 2.352L0.40407 0.86541L0.385069 0.882511L0.36651 0.900093L1.742 2.352ZM33.806 1.2H35.806V-0.800003H33.806V1.2ZM32.462 6.832L30.862 5.63198L30.8549 5.64154L32.462 6.832ZM9.102 8.56V6.56H7.102V8.56H9.102ZM9.102 19.376H7.102V21.376H9.102V19.376ZM26.126 19.376H28.126V17.376H26.126V19.376ZM24.782 25.008L23.182 23.808L23.1749 23.8175L24.782 25.008ZM9.102 26.736V24.736H7.102V26.736H9.102ZM7.054 45.168L8.18706 46.8161L8.20429 46.8042L8.22127 46.792L7.054 45.168ZM0.526001 46.576H-1.474V48.576H0.526001V46.576ZM2.526 5.104C2.526 4.6148 2.6845 4.21411 3.11749 3.8039L0.36651 0.900093C-0.821831 2.02589 -1.474 3.45987 -1.474 5.104H2.526ZM3.07993 3.83858C3.54996 3.41556 4.09139 3.2 4.814 3.2V-0.800003C3.14728 -0.800003 1.64071 -0.247562 0.40407 0.86541L3.07993 3.83858ZM4.814 3.2H33.806V-0.800003H4.814V3.2ZM31.806 1.2C31.806 3.60514 31.3703 4.95422 30.862 5.632L34.062 8.032C35.3457 6.32044 35.806 3.91485 35.806 1.2H31.806ZM30.8549 5.64154C30.507 6.11123 29.8187 6.56 28.238 6.56V10.56C30.5826 10.56 32.7104 9.85676 34.0691 8.02245L30.8549 5.64154ZM28.238 6.56H9.102V10.56H28.238V6.56ZM7.102 8.56V19.376H11.102V8.56H7.102ZM9.102 21.376H26.126V17.376H9.102V21.376ZM24.126 19.376C24.126 21.7811 23.6903 23.1302 23.182 23.808L26.382 26.208C27.6657 24.4964 28.126 22.0909 28.126 19.376H24.126ZM23.1749 23.8175C22.827 24.2872 22.1387 24.736 20.558 24.736V28.736C22.9026 28.736 25.0304 28.0328 26.3891 26.1985L23.1749 23.8175ZM20.558 24.736H9.102V28.736H20.558V24.736ZM7.102 26.736V40.496H11.102V26.736H7.102ZM7.102 40.496C7.102 42.178 6.59046 43.0382 5.88673 43.544L8.22127 46.792C10.2482 45.3352 11.102 43.0807 11.102 40.496H7.102ZM5.92094 43.5199C5.06373 44.1092 3.39082 44.576 0.526001 44.576V48.576C3.63451 48.576 6.3136 48.1041 8.18706 46.8161L5.92094 43.5199ZM2.526 46.576V5.104H-1.474V46.576H2.526ZM37.123 9.072L35.7406 10.5173L35.7726 10.5479L35.806 10.5772L37.123 9.072ZM37.123 2.032L38.4715 3.50897L38.4744 3.50631L37.123 2.032ZM44.739 2.032L43.3566 3.47728L43.3886 3.50794L43.422 3.53715L44.739 2.032ZM44.739 9.072L46.0875 10.549L46.0904 10.5463L44.739 9.072ZM38.915 14.576L39.8767 16.3296L39.8981 16.3179L39.9193 16.3056L38.915 14.576ZM44.931 13.424H46.931V11.424H44.931V13.424ZM42.947 45.424L41.9427 43.6944L42.947 45.424ZM36.931 46.576H34.931V48.576H36.931V46.576ZM40.963 8.416C39.8447 8.416 39.0522 8.10247 38.44 7.56684L35.806 10.5772C37.2418 11.8335 39.0093 12.416 40.963 12.416V8.416ZM38.5054 7.62671C37.9476 7.09315 37.651 6.43438 37.651 5.488H33.651C33.651 7.44295 34.3357 9.17352 35.7406 10.5173L38.5054 7.62671ZM37.651 5.488C37.651 4.60427 37.9323 4.00134 38.4715 3.50897L35.7745 0.555027C34.3511 1.85466 33.651 3.55573 33.651 5.488H37.651ZM38.4744 3.50631C39.0894 2.94257 39.8701 2.624 40.963 2.624V-1.376C38.9839 -1.376 37.2046 -0.755907 35.7715 0.55769L38.4744 3.50631ZM40.963 2.624C42.057 2.624 42.7971 2.94213 43.3566 3.47728L46.1214 0.586714C44.7183 -0.755468 42.941 -1.376 40.963 -1.376V2.624ZM43.422 3.53715C43.995 4.03854 44.275 4.63381 44.275 5.488H48.275C48.275 3.52619 47.531 1.81746 46.056 0.526846L43.422 3.53715ZM44.275 5.488C44.275 6.40612 43.978 7.05641 43.3876 7.59769L46.0904 10.5463C47.548 9.21026 48.275 7.47121 48.275 5.488H44.275ZM43.3905 7.59503C42.8347 8.10244 42.0831 8.416 40.963 8.416V12.416C42.9149 12.416 44.6806 11.8336 46.0875 10.549L43.3905 7.59503ZM38.931 18.288C38.931 17.1284 39.3087 16.6411 39.8767 16.3296L37.9533 12.8224C35.8759 13.9616 34.931 15.9489 34.931 18.288H38.931ZM39.9193 16.3056C40.7849 15.803 42.3641 15.424 44.931 15.424V11.424C42.1219 11.424 39.6905 11.813 37.9107 12.8464L39.9193 16.3056ZM42.931 13.424V41.712H46.931V13.424H42.931ZM42.931 41.712C42.931 42.8055 42.5675 43.3317 41.9427 43.6944L43.9513 47.1536C45.9719 45.9803 46.931 44.0318 46.931 41.712H42.931ZM41.9427 43.6944C41.0771 44.197 39.4979 44.576 36.931 44.576V48.576C39.7401 48.576 42.1715 48.187 43.9513 47.1536L41.9427 43.6944ZM38.931 46.576V18.288H34.931V46.576H38.931ZM55.6945 15.024L54.4141 13.4876L54.4013 13.4983L54.3886 13.5092L55.6945 15.024ZM61.4545 13.424H63.4545V11.424H61.4545V13.424ZM61.4545 17.264L62.973 18.5656L63.4545 18.0038V17.264H61.4545ZM59.9185 19.312L58.2544 18.2026L57.145 19.8667L58.8091 20.9761L59.9185 19.312ZM60.3025 19.568L59.1931 21.2321L60.8572 22.3415L61.9666 20.6774L60.3025 19.568ZM65.2305 15.088L66.1697 16.8537L66.1842 16.846L66.1986 16.8381L65.2305 15.088ZM77.6465 14.896L78.6625 13.1733L77.6465 14.896ZM81.4865 18.928L79.7157 19.8577L79.7247 19.8748L79.7341 19.8918L81.4865 18.928ZM80.9105 45.424L79.9062 43.6944L80.9105 45.424ZM74.8945 46.576H72.8945V48.576H74.8945V46.576ZM73.4225 21.872L71.9482 23.2234L71.9632 23.2398L71.9785 23.2558L73.4225 21.872ZM63.8865 22.384L65.2559 23.8417L65.2674 23.8308L65.2788 23.8198L63.8865 22.384ZM59.8545 45.424L60.8835 47.139L59.8545 45.424ZM53.8385 46.576H51.8385V48.576H53.8385V46.576ZM55.8385 19.568C55.8385 18.0587 56.2926 17.149 57.0004 16.5388L54.3886 13.5092C52.6218 15.0323 51.8385 17.1519 51.8385 19.568H55.8385ZM56.9749 16.5604C57.7467 15.9173 59.123 15.424 61.4545 15.424V11.424C58.666 11.424 56.2023 11.9974 54.4141 13.4876L56.9749 16.5604ZM59.4545 13.424V17.264H63.4545V13.424H59.4545ZM59.936 15.9624C59.3636 16.6302 58.8036 17.3788 58.2544 18.2026L61.5826 20.4214C62.0574 19.7092 62.5214 19.0925 62.973 18.5656L59.936 15.9624ZM58.8091 20.9761L59.1931 21.2321L61.4119 17.9039L61.0279 17.6479L58.8091 20.9761ZM61.9666 20.6774C63.0661 19.0282 64.4614 17.7624 66.1697 16.8537L64.2913 13.3223C61.9889 14.5469 60.0989 16.2678 58.6384 18.4586L61.9666 20.6774ZM66.1986 16.8381C67.8894 15.9027 69.7717 15.424 71.8865 15.424V11.424C69.1373 11.424 66.5823 12.0546 64.2624 13.3379L66.1986 16.8381ZM71.8865 15.424C73.7513 15.424 75.3118 15.841 76.6305 16.6187L78.6625 13.1733C76.6532 11.9883 74.3737 11.424 71.8865 11.424V15.424ZM76.6305 16.6187C77.9748 17.4115 78.9931 18.4812 79.7157 19.8577L83.2573 17.9983C82.188 15.9615 80.6462 14.3432 78.6625 13.1733L76.6305 16.6187ZM79.7341 19.8918C80.4952 21.2757 80.8945 22.8588 80.8945 24.688H84.8945C84.8945 22.2505 84.3551 19.9937 83.2389 17.9642L79.7341 19.8918ZM80.8945 24.688V41.712H84.8945V24.688H80.8945ZM80.8945 41.712C80.8945 42.8055 80.531 43.3317 79.9062 43.6944L81.9148 47.1536C83.9354 45.9803 84.8945 44.0318 84.8945 41.712H80.8945ZM79.9062 43.6944C79.0406 44.197 77.4614 44.576 74.8945 44.576V48.576C77.7036 48.576 80.135 48.187 81.9148 47.1536L79.9062 43.6944ZM76.8945 46.576V25.84H72.8945V46.576H76.8945ZM76.8945 25.84C76.8945 23.7826 76.2562 21.9383 74.8665 20.4882L71.9785 23.2558C72.5515 23.8537 72.8945 24.6547 72.8945 25.84H76.8945ZM74.8968 20.5205C73.4681 18.962 71.4688 18.336 69.2625 18.336V22.336C70.7255 22.336 71.4996 22.734 71.9482 23.2234L74.8968 20.5205ZM69.2625 18.336C66.6288 18.336 64.3177 19.18 62.4942 20.9482L65.2788 23.8198C66.2713 22.8573 67.5442 22.336 69.2625 22.336V18.336ZM62.5172 20.9263C60.6898 22.6429 59.7745 24.8422 59.7745 27.376H63.7745C63.7745 25.8991 64.2672 24.7704 65.2559 23.8417L62.5172 20.9263ZM59.7745 27.376V41.712H63.7745V27.376H59.7745ZM59.7745 41.712C59.7745 42.836 59.407 43.3601 58.8255 43.709L60.8835 47.139C62.862 45.9519 63.7745 44.0014 63.7745 41.712H59.7745ZM58.8255 43.709C58.0203 44.1922 56.4634 44.576 53.8385 44.576V48.576C56.675 48.576 59.1287 48.1918 60.8835 47.139L58.8255 43.709ZM55.8385 46.576V19.568H51.8385V46.576H55.8385ZM96.3905 43.568L94.8514 44.8451L96.3905 43.568ZM93.8945 19.952H95.8945V17.952H93.8945V19.952ZM87.3025 19.952H85.3025V21.952H87.3025V19.952ZM88.4545 15.472L86.8795 14.2394L88.4545 15.472ZM94.0225 14V16H96.0225V14H94.0225ZM95.9425 4.976L96.9285 6.71604L96.9502 6.70378L96.9715 6.69098L95.9425 4.976ZM101.767 3.824H103.767V1.824H101.767V3.824ZM101.767 14H99.7665V16H101.767V14ZM110.279 14H112.279V12H110.279V14ZM109.062 18.608L110.546 19.9498L110.561 19.9327L110.576 19.9152L109.062 18.608ZM101.895 19.952V17.952H99.8945V19.952H101.895ZM102.727 38.704L101.215 40.0139L101.239 40.0417L101.264 40.0686L102.727 38.704ZM110.215 38.448L111.552 36.9614L110.502 36.0162L109.26 36.6903L110.215 38.448ZM111.238 39.92L109.4 40.7078L109.411 40.7331L109.423 40.7581L111.238 39.92ZM109.639 45.104L110.83 46.7102L110.847 46.698L110.863 46.6854L109.639 45.104ZM104.07 44.576C101.002 44.576 99.0987 43.6997 97.9296 42.2909L94.8514 44.8451C97.0103 47.447 100.227 48.576 104.07 48.576V44.576ZM97.9296 42.2909C96.623 40.7162 95.8945 38.6174 95.8945 35.824H91.8945C91.8945 39.3452 92.83 42.4092 94.8514 44.8451L97.9296 42.2909ZM95.8945 35.824V19.952H91.8945V35.824H95.8945ZM93.8945 17.952H87.3025V21.952H93.8945V17.952ZM89.3025 19.952C89.3025 18.1407 89.6601 17.1766 90.0295 16.7046L86.8795 14.2394C85.7129 15.7301 85.3025 17.7526 85.3025 19.952H89.3025ZM90.0295 16.7046C90.4066 16.2228 90.8421 16 91.5265 16V12C89.6509 12 88.0384 12.7585 86.8795 14.2394L90.0295 16.7046ZM91.5265 16H94.0225V12H91.5265V16ZM96.0225 14V8.688H92.0225V14H96.0225ZM96.0225 8.688C96.0225 7.49714 96.4043 7.01309 96.9285 6.71604L94.9565 3.23595C92.9207 4.38957 92.0225 6.38019 92.0225 8.688H96.0225ZM96.9715 6.69098C97.7871 6.20163 99.2912 5.824 101.767 5.824V1.824C99.0365 1.824 96.6579 2.21436 94.9135 3.26101L96.9715 6.69098ZM99.7665 3.824V14H103.767V3.824H99.7665ZM101.767 16H110.279V12H101.767V16ZM108.279 14C108.279 15.969 107.888 16.9086 107.549 17.3008L110.576 19.9152C111.859 18.4301 112.279 16.2976 112.279 14H108.279ZM107.579 17.2662C107.3 17.5751 106.661 17.952 105.159 17.952V21.952C107.24 21.952 109.204 21.4329 110.546 19.9498L107.579 17.2662ZM105.159 17.952H101.895V21.952H105.159V17.952ZM99.8945 19.952V35.504H103.895V19.952H99.8945ZM99.8945 35.504C99.8945 37.1466 100.181 38.8202 101.215 40.0139L104.238 37.3941C104.163 37.3078 103.895 36.8481 103.895 35.504H99.8945ZM101.264 40.0686C102.417 41.3033 104.099 41.664 105.734 41.664V37.664C104.554 37.664 104.231 37.3847 104.189 37.3394L101.264 40.0686ZM105.734 41.664C107.605 41.664 109.423 41.1532 111.169 40.2057L109.26 36.6903C108.019 37.3641 106.851 37.664 105.734 37.664V41.664ZM108.877 39.9346C109.061 40.1006 109.243 40.3417 109.4 40.7078L113.077 39.1322C112.722 38.3037 112.221 37.5634 111.552 36.9614L108.877 39.9346ZM109.423 40.7581C109.56 41.0562 109.622 41.3468 109.622 41.648H113.622C113.622 40.7546 113.429 39.8932 113.054 39.0819L109.423 40.7581ZM109.622 41.648C109.622 42.1287 109.411 42.7511 108.414 43.5226L110.863 46.6854C112.512 45.4089 113.622 43.7273 113.622 41.648H109.622ZM108.447 43.4978C107.593 44.1312 106.217 44.576 104.07 44.576V48.576C106.703 48.576 109.039 48.0395 110.83 46.7102L108.447 43.4978ZM122.684 45.04L121.803 46.8358L121.817 46.8429L121.832 46.8496L122.684 45.04ZM117.499 40.752L115.859 41.8964L115.866 41.9055L115.872 41.9145L117.499 40.752ZM117.564 19.632L115.916 18.4974L117.564 19.632ZM122.811 15.088L121.917 13.2991L121.91 13.3026L121.903 13.3062L122.811 15.088ZM136.891 15.024L135.983 16.8055L136.004 16.8165L136.026 16.827L136.891 15.024ZM141.948 19.376L140.278 20.4766L140.283 20.4855L140.289 20.4943L141.948 19.376ZM142.715 31.664L141.392 30.1643L141.37 30.1843L141.348 30.2049L142.715 31.664ZM123.324 32.624V30.624H121.324V32.624H123.324ZM124.988 38.512L123.547 39.8993L124.988 38.512ZM134.715 38.832L133.394 37.3306L133.379 37.344L133.364 37.3577L134.715 38.832ZM136.316 35.184L136.095 33.1962L134.316 33.3939V35.184H136.316ZM141.628 36.144L140.369 37.6985L140.392 37.717L140.415 37.7349L141.628 36.144ZM141.243 42.672L142.658 44.0862L141.243 42.672ZM136.508 45.488L137.188 47.3688L136.508 45.488ZM136.572 26.928V28.928H138.572V26.928H136.572ZM134.715 21.36L136.051 19.8709L134.715 21.36ZM125.115 21.36L126.448 22.8519L126.451 22.8491L125.115 21.36ZM123.324 26.928H121.324V28.928H123.324V26.928ZM129.915 44.576C127.535 44.576 125.419 44.1169 123.535 43.2304L121.832 46.8496C124.3 48.0111 127.006 48.576 129.915 48.576V44.576ZM123.564 43.2442C121.655 42.3085 120.195 41.0854 119.127 39.5895L115.872 41.9145C117.364 44.0026 119.36 45.6382 121.803 46.8358L123.564 43.2442ZM119.14 39.6076C118.097 38.1125 117.579 36.4648 117.579 34.608H113.579C113.579 37.2739 114.342 39.7222 115.859 41.8964L119.14 39.6076ZM117.579 34.608V26.096H113.579V34.608H117.579ZM117.579 26.096C117.579 24.1012 118.124 22.3442 119.211 20.7666L115.916 18.4974C114.358 20.7598 113.579 23.3121 113.579 26.096H117.579ZM119.211 20.7666C120.336 19.1336 121.825 17.8356 123.72 16.8698L121.903 13.3062C119.446 14.5591 117.437 16.2904 115.916 18.4974L119.211 20.7666ZM123.706 16.8769C125.638 15.9109 127.72 15.424 129.98 15.424V11.424C127.119 11.424 124.423 12.0464 121.917 13.2991L123.706 16.8769ZM129.98 15.424C132.204 15.424 134.194 15.8928 135.983 16.8055L137.8 13.2425C135.408 12.0219 132.789 11.424 129.98 11.424V15.424ZM136.026 16.827C137.85 17.7027 139.25 18.9182 140.278 20.4766L143.617 18.2754C142.17 16.0792 140.199 14.3933 137.757 13.221L136.026 16.827ZM140.289 20.4943C141.286 21.972 141.803 23.6879 141.803 25.712H145.803C145.803 22.9575 145.084 20.4493 143.606 18.2577L140.289 20.4943ZM141.803 25.712V29.296H145.803V25.712H141.803ZM141.803 29.296C141.803 29.6411 141.702 29.8908 141.392 30.1643L144.039 33.1637C145.179 32.1572 145.803 30.8282 145.803 29.296H141.803ZM141.348 30.2049C141.088 30.4484 140.727 30.624 140.092 30.624V34.624C141.59 34.624 142.978 34.1596 144.083 33.1231L141.348 30.2049ZM140.092 30.624H123.324V34.624H140.092V30.624ZM121.324 32.624V34.032H125.324V32.624H121.324ZM121.324 34.032C121.324 36.3019 122.025 38.3194 123.547 39.8993L126.428 37.1247C125.731 36.4006 125.324 35.4315 125.324 34.032H121.324ZM123.547 39.8993C125.16 41.5748 127.433 42.24 129.98 42.24V38.24C128.089 38.24 127.033 37.7532 126.428 37.1247L123.547 39.8993ZM129.98 42.24C132.354 42.24 134.52 41.7248 136.067 40.3063L133.364 37.3577C132.863 37.8166 131.872 38.24 129.98 38.24V42.24ZM136.037 40.3334C137.559 38.9936 138.316 37.2188 138.316 35.184H134.316C134.316 36.1359 134.005 36.7931 133.394 37.3306L136.037 40.3334ZM136.536 37.1718C137.31 37.0858 137.742 37.056 137.915 37.056V33.056C137.492 33.056 136.857 33.1116 136.095 33.1962L136.536 37.1718ZM137.915 37.056C139.204 37.056 139.941 37.3519 140.369 37.6985L142.886 34.5895C141.522 33.4855 139.784 33.056 137.915 33.056V37.056ZM140.415 37.7349C140.743 37.9841 140.971 38.3352 140.971 39.088H144.971C144.971 37.2808 144.304 35.6692 142.84 34.5531L140.415 37.7349ZM140.971 39.088C140.971 39.6429 140.729 40.3576 139.829 41.2578L142.658 44.0862C144.062 42.6824 144.971 41.0078 144.971 39.088H140.971ZM139.829 41.2578C138.938 42.1486 137.638 42.9522 135.827 43.6072L137.188 47.3688C139.387 46.5732 141.245 45.4994 142.658 44.0862L139.829 41.2578ZM135.827 43.6072C134.065 44.2448 132.101 44.576 129.915 44.576V48.576C132.509 48.576 134.94 48.1819 137.188 47.3688L135.827 43.6072ZM138.572 26.928V25.712H134.572V26.928H138.572ZM138.572 25.712C138.572 23.4018 137.747 21.3918 136.051 19.8709L133.38 22.8491C134.159 23.5469 134.572 24.4382 134.572 25.712H138.572ZM136.051 19.8709C134.382 18.3746 132.277 17.696 129.915 17.696V21.696C131.48 21.696 132.575 22.1267 133.38 22.8491L136.051 19.8709ZM129.915 17.696C127.554 17.696 125.449 18.3746 123.78 19.8709L126.451 22.8491C127.256 22.1267 128.351 21.696 129.915 21.696V17.696ZM123.783 19.8681C122.1 21.3713 121.324 23.3993 121.324 25.712H125.324C125.324 24.3554 125.742 23.482 126.448 22.8519L123.783 19.8681ZM121.324 25.712V26.928H125.324V25.712H121.324ZM123.324 28.928H136.572V24.928H123.324V28.928ZM156.363 45.104L155.498 46.907L155.513 46.9141L155.528 46.921L156.363 45.104ZM151.372 40.88L149.707 41.9894L151.372 40.88ZM151.372 19.376L149.684 18.3022L151.372 19.376ZM156.363 15.024L157.229 16.827L157.243 16.8201L157.258 16.8129L156.363 15.024ZM170.443 14.512L169.75 16.388L169.763 16.3928L170.443 14.512ZM175.116 17.584L173.583 18.8692L173.594 18.8816L173.604 18.8939L175.116 17.584ZM175.243 25.264L176.485 26.8321L175.243 25.264ZM170.188 26.416H168.188V28.0556L169.795 28.3772L170.188 26.416ZM168.396 22L167.008 23.4406L167.021 23.4532L167.035 23.4656L168.396 22ZM159.243 21.936L157.911 20.4441L157.898 20.4562L157.885 20.4685L159.243 21.936ZM159.307 38.192L158.006 39.7105L158.022 39.7242L158.038 39.7375L159.307 38.192ZM168.523 38L169.884 39.4656L169.898 39.4528L169.912 39.4397L168.523 38ZM170.316 33.648L169.987 31.6752L168.316 31.9537V33.648H170.316ZM175.436 34.736L174.236 36.336L175.436 34.736ZM175.243 42.416L173.735 41.1024L173.732 41.1061L175.243 42.416ZM170.572 45.488L171.252 47.3688L171.269 47.3624L171.287 47.3557L170.572 45.488ZM163.723 44.576C161.187 44.576 159.027 44.1279 157.199 43.287L155.528 46.921C157.966 48.0428 160.713 48.576 163.723 48.576V44.576ZM157.229 43.301C155.386 42.4165 154.012 41.2349 153.036 39.7706L149.707 41.9894C151.121 44.1091 153.074 45.7435 155.498 46.907L157.229 43.301ZM153.036 39.7706C152.071 38.324 151.579 36.6873 151.579 34.8H147.579C147.579 37.4354 148.282 39.852 149.707 41.9894L153.036 39.7706ZM151.579 34.8V25.84H147.579V34.8H151.579ZM151.579 25.84C151.579 23.7517 152.087 21.9766 153.059 20.4497L149.684 18.3022C148.266 20.5301 147.579 23.0643 147.579 25.84H151.579ZM153.059 20.4497C154.04 18.9077 155.41 17.7001 157.229 16.827L155.498 13.221C153.05 14.3959 151.092 16.0896 149.684 18.3022L153.059 20.4497ZM157.258 16.8129C159.076 15.9039 161.194 15.424 163.66 15.424V11.424C160.663 11.424 157.918 12.0107 155.469 13.2351L157.258 16.8129ZM163.66 15.424C166.034 15.424 168.053 15.7607 169.75 16.388L171.137 12.636C168.909 11.8126 166.405 11.424 163.66 11.424V15.424ZM169.763 16.3928C171.514 17.0262 172.748 17.8735 173.583 18.8692L176.648 16.2988C175.264 14.6492 173.383 13.4485 171.124 12.6312L169.763 16.3928ZM173.604 18.8939C174.396 19.8072 174.779 20.8345 174.779 22.064H178.779C178.779 19.8802 178.054 17.9208 176.627 16.2741L173.604 18.8939ZM174.779 22.064C174.779 22.7846 174.54 23.2702 174.002 23.6959L176.485 26.8321C177.995 25.6365 178.779 23.9887 178.779 22.064H174.779ZM174.002 23.6959C173.419 24.1579 172.55 24.48 171.212 24.48V28.48C173.201 28.48 175.02 27.9915 176.485 26.8321L174.002 23.6959ZM171.212 24.48C171.004 24.48 170.845 24.4752 170.728 24.4679C170.603 24.4601 170.563 24.4515 170.58 24.4548L169.795 28.3772C170.216 28.4612 170.725 28.48 171.212 28.48V24.48ZM172.188 26.416C172.188 24.1022 171.412 22.0716 169.756 20.5344L167.035 23.4656C167.769 24.1471 168.188 25.0605 168.188 26.416H172.188ZM169.783 20.5594C168.194 19.0294 166.15 18.336 163.852 18.336V22.336C165.308 22.336 166.293 22.7519 167.008 23.4406L169.783 20.5594ZM163.852 18.336C161.572 18.336 159.534 18.995 157.911 20.4441L160.576 23.4279C161.342 22.7436 162.376 22.336 163.852 22.336V18.336ZM157.885 20.4685C156.275 21.9591 155.516 23.9241 155.516 26.16H159.516C159.516 24.8973 159.908 24.0463 160.602 23.4035L157.885 20.4685ZM155.516 26.16V34.224H159.516V26.16H155.516ZM155.516 34.224C155.516 36.4088 156.353 38.2935 158.006 39.7105L160.609 36.6735C159.873 36.0425 159.516 35.2819 159.516 34.224H155.516ZM158.038 39.7375C159.663 41.0719 161.678 41.664 163.915 41.664V37.664C162.398 37.664 161.342 37.2747 160.577 36.6465L158.038 39.7375ZM163.915 41.664C166.216 41.664 168.264 40.9704 169.884 39.4656L167.163 36.5344C166.394 37.2482 165.37 37.664 163.915 37.664V41.664ZM169.912 39.4397C171.52 37.8885 172.316 35.9076 172.316 33.648H168.316C168.316 34.8871 167.916 35.8074 167.135 36.5603L169.912 39.4397ZM170.644 35.6208C170.738 35.6052 170.971 35.584 171.404 35.584V31.584C170.897 31.584 170.405 31.6055 169.987 31.6752L170.644 35.6208ZM171.404 35.584C172.765 35.584 173.649 35.8961 174.236 36.336L176.635 33.136C175.174 32.0399 173.37 31.584 171.404 31.584V35.584ZM174.236 36.336C174.736 36.7118 174.971 37.1542 174.971 37.872H178.971C178.971 35.9445 178.182 34.2962 176.635 33.136L174.236 36.336ZM174.971 37.872C174.971 39.0813 174.58 40.1328 173.735 41.1024L176.752 43.7296C178.211 42.0538 178.971 40.076 178.971 37.872H174.971ZM173.732 41.1061C172.888 42.0797 171.635 42.9391 169.856 43.6203L171.287 47.3557C173.519 46.5008 175.38 45.3123 176.755 43.7259L173.732 41.1061ZM169.891 43.6072C168.143 44.2396 166.097 44.576 163.723 44.576V48.576C166.47 48.576 168.99 48.187 171.252 47.3688L169.891 43.6072ZM185.137 2.224L186.368 3.80005V3.80005L185.137 2.224ZM191.025 0.623997H193.025V-1.376H191.025V0.623997ZM191.025 17.264L192.49 18.6249L193.025 18.0494V17.264H191.025ZM189.488 19.312L187.782 18.2691L186.779 19.9096L188.379 20.9761L189.488 19.312ZM189.872 19.568L188.763 21.2321L190.37 22.3031L191.497 20.7353L189.872 19.568ZM206.896 14.896L207.912 13.1733L206.896 14.896ZM210.736 18.928L208.966 19.8577L208.975 19.8748L208.984 19.8918L210.736 18.928ZM210.161 45.424L209.156 43.6944L210.161 45.424ZM204.145 46.576H202.145V48.576H204.145V46.576ZM202.673 21.872L201.198 23.2234L201.213 23.2398L201.229 23.2558L202.673 21.872ZM193.137 22.384L194.506 23.8417L194.517 23.8308L194.529 23.8198L193.137 22.384ZM189.04 45.424L188.036 43.6944L189.04 45.424ZM183.089 46.576H181.089V48.576H183.089V46.576ZM185.089 6.768C185.089 5.32814 185.556 4.43397 186.368 3.80005L183.905 0.647949C181.986 2.14736 181.089 4.28252 181.089 6.768H185.089ZM186.368 3.80005C187.248 3.11201 188.706 2.624 191.025 2.624V-1.376C188.223 -1.376 185.755 -0.797348 183.905 0.647951L186.368 3.80005ZM189.025 0.623997V17.264H193.025V0.623997H189.025ZM189.559 15.9031C188.905 16.6076 188.314 17.399 187.782 18.2691L191.195 20.3549C191.602 19.689 192.035 19.115 192.49 18.6249L189.559 15.9031ZM188.379 20.9761L188.763 21.2321L190.982 17.9039L190.598 17.6479L188.379 20.9761ZM191.497 20.7353C194.111 17.0984 197.29 15.424 201.137 15.424V11.424C195.853 11.424 191.522 13.8456 188.248 18.4007L191.497 20.7353ZM201.137 15.424C203.001 15.424 204.562 15.841 205.881 16.6187L207.912 13.1733C205.903 11.9883 203.624 11.424 201.137 11.424V15.424ZM205.881 16.6187C207.225 17.4115 208.243 18.4812 208.966 19.8577L212.507 17.9983C211.438 15.9615 209.896 14.3432 207.912 13.1733L205.881 16.6187ZM208.984 19.8918C209.745 21.2757 210.145 22.8588 210.145 24.688H214.145C214.145 22.2505 213.605 19.9937 212.489 17.9642L208.984 19.8918ZM210.145 24.688V41.712H214.145V24.688H210.145ZM210.145 41.712C210.145 42.8055 209.781 43.3317 209.156 43.6944L211.165 47.1536C213.185 45.9803 214.145 44.0318 214.145 41.712H210.145ZM209.156 43.6944C208.291 44.197 206.711 44.576 204.145 44.576V48.576C206.954 48.576 209.385 48.187 211.165 47.1536L209.156 43.6944ZM206.145 46.576V25.84H202.145V46.576H206.145ZM206.145 25.84C206.145 23.7826 205.506 21.9383 204.116 20.4882L201.229 23.2558C201.801 23.8537 202.145 24.6547 202.145 25.84H206.145ZM204.147 20.5205C202.718 18.962 200.719 18.336 198.512 18.336V22.336C199.976 22.336 200.75 22.734 201.198 23.2234L204.147 20.5205ZM198.512 18.336C195.879 18.336 193.568 19.18 191.744 20.9482L194.529 23.8198C195.521 22.8573 196.794 22.336 198.512 22.336V18.336ZM191.767 20.9263C189.94 22.6429 189.025 24.8422 189.025 27.376H193.025C193.025 25.8991 193.517 24.7704 194.506 23.8417L191.767 20.9263ZM189.025 27.376V41.712H193.025V27.376H189.025ZM189.025 41.712C189.025 42.8055 188.661 43.3317 188.036 43.6944L190.045 47.1536C192.065 45.9803 193.025 44.0318 193.025 41.712H189.025ZM188.036 43.6944C187.167 44.199 185.606 44.576 183.089 44.576V48.576C185.862 48.576 188.268 48.185 190.045 47.1536L188.036 43.6944ZM185.089 46.576V6.768H181.089V46.576H185.089Z" fill="white" mask="url(#path-1-outside-1_2_59)"/>
</svg>
