<svg width="220" height="20" viewBox="0 0 220 20" fill="none" xmlns="http://www.w3.org/2000/svg">
<path d="M0.8675 2.22C0.8675 1.88667 0.994167 1.6 1.2475 1.36C1.51417 1.12 1.83417 0.999999 2.2075 0.999999H11.2675C11.2675 1.8 11.1275 2.38667 10.8475 2.76C10.5808 3.12 10.1408 3.3 9.5275 3.3H3.5475V6.68H8.8675C8.8675 7.48 8.7275 8.06667 8.4475 8.44C8.18083 8.8 7.74083 8.98 7.1275 8.98H3.5475V13.28C3.5475 13.9467 3.33417 14.4333 2.9075 14.74C2.48083 15.0333 1.80083 15.18 0.8675 15.18V2.22ZM13.5041 3.88C13.0241 3.88 12.6241 3.74 12.3041 3.46C11.9974 3.16667 11.8441 2.79333 11.8441 2.34C11.8441 1.9 11.9974 1.54 12.3041 1.26C12.6241 0.966666 13.0241 0.819999 13.5041 0.819999C13.9841 0.819999 14.3774 0.966666 14.6841 1.26C15.0041 1.54 15.1641 1.9 15.1641 2.34C15.1641 2.79333 15.0041 3.16667 14.6841 3.46C14.3774 3.74 13.9841 3.88 13.5041 3.88ZM12.2441 6.34C12.2441 5.79333 12.4507 5.40667 12.8641 5.18C13.2774 4.94 13.9041 4.82 14.7441 4.82V13.66C14.7441 14.1933 14.5374 14.58 14.1241 14.82C13.7107 15.06 13.0841 15.18 12.2441 15.18V6.34ZM17.5277 6.74C17.5277 6.12667 17.721 5.65333 18.1077 5.32C18.5077 4.98667 19.1077 4.82 19.9077 4.82V6.02C19.7477 6.20667 19.5877 6.42 19.4277 6.66L19.5477 6.74C19.9477 6.14 20.461 5.67333 21.0877 5.34C21.7143 4.99333 22.4077 4.82 23.1677 4.82C23.8477 4.82 24.4477 4.97333 24.9677 5.28C25.4877 5.58667 25.8877 6.00667 26.1677 6.54C26.461 7.07333 26.6077 7.67333 26.6077 8.34V13.66C26.6077 14.1933 26.401 14.58 25.9877 14.82C25.5743 15.06 24.9477 15.18 24.1077 15.18V8.7C24.1077 8.19333 23.9543 7.78 23.6477 7.46C23.3543 7.14 22.921 6.98 22.3477 6.98C21.6677 6.98 21.1077 7.19333 20.6677 7.62C20.2277 8.03333 20.0077 8.55333 20.0077 9.18V13.66C20.0077 14.1933 19.8077 14.58 19.4077 14.82C19.0077 15.06 18.381 15.18 17.5277 15.18V6.74ZM32.1563 15.18C31.4763 15.18 30.8496 15.0467 30.2763 14.78C29.7163 14.5133 29.2629 14.1333 28.9163 13.64C28.5829 13.1333 28.4163 12.5333 28.4163 11.84C28.4163 11.1467 28.5963 10.5467 28.9563 10.04C29.3163 9.52 29.8029 9.12667 30.4163 8.86C31.0429 8.58 31.7296 8.44 32.4763 8.44C33.0896 8.44 33.6363 8.54 34.1163 8.74C34.6096 8.92667 35.0629 9.21333 35.4763 9.6L35.5763 9.5C35.4563 9.38 35.2496 9.2 34.9563 8.96V8.56C34.9563 8.01333 34.7629 7.58 34.3763 7.26C33.9896 6.94 33.4496 6.78 32.7563 6.78C31.5163 6.78 30.6029 7.23333 30.0163 8.14C29.7229 8.04667 29.4763 7.9 29.2763 7.7C29.0762 7.48667 28.9762 7.26 28.9762 7.02C28.9762 6.62 29.1563 6.25333 29.5163 5.92C29.8763 5.58667 30.3629 5.32 30.9763 5.12C31.5896 4.92 32.2563 4.82 32.9763 4.82C34.3896 4.82 35.4829 5.15333 36.2563 5.82C37.0296 6.47333 37.4163 7.36667 37.4163 8.5V13.5C37.4163 14.0867 37.2296 14.5133 36.8563 14.78C36.4829 15.0467 35.8963 15.18 35.0963 15.18V14.36C35.3229 14.1333 35.4763 13.9667 35.5563 13.86L35.4763 13.76C35.0363 14.2267 34.5629 14.58 34.0563 14.82C33.5629 15.06 32.9296 15.18 32.1563 15.18ZM32.7962 13.36C33.4896 13.36 34.0296 13.2267 34.4163 12.96C34.8029 12.6933 34.9963 12.3133 34.9963 11.82C34.9963 11.34 34.7963 10.96 34.3963 10.68C34.0096 10.4 33.4829 10.26 32.8163 10.26C32.2029 10.26 31.7163 10.4 31.3563 10.68C31.0096 10.9467 30.8363 11.3267 30.8363 11.82C30.8363 12.3267 31.0096 12.7133 31.3563 12.98C31.7029 13.2333 32.1829 13.36 32.7962 13.36ZM39.6566 6.74C39.6566 6.12667 39.8499 5.65333 40.2366 5.32C40.6366 4.98667 41.2366 4.82 42.0366 4.82V6.02C41.8766 6.20667 41.7166 6.42 41.5566 6.66L41.6766 6.74C42.0766 6.14 42.5899 5.67333 43.2166 5.34C43.8432 4.99333 44.5366 4.82 45.2966 4.82C45.9766 4.82 46.5766 4.97333 47.0966 5.28C47.6166 5.58667 48.0166 6.00667 48.2966 6.54C48.5899 7.07333 48.7366 7.67333 48.7366 8.34V13.66C48.7366 14.1933 48.5299 14.58 48.1166 14.82C47.7032 15.06 47.0766 15.18 46.2366 15.18V8.7C46.2366 8.19333 46.0832 7.78 45.7766 7.46C45.4832 7.14 45.0499 6.98 44.4766 6.98C43.7966 6.98 43.2366 7.19333 42.7966 7.62C42.3566 8.03333 42.1366 8.55333 42.1366 9.18V13.66C42.1366 14.1933 41.9366 14.58 41.5366 14.82C41.1366 15.06 40.5099 15.18 39.6566 15.18V6.74ZM59.4052 12.46C59.4052 13.1267 59.1318 13.6933 58.5852 14.16C58.0518 14.6267 57.3318 14.9333 56.4252 15.08L55.9252 15.8C56.5252 15.8 56.9985 15.9733 57.3452 16.32C57.7052 16.6667 57.8852 17.1067 57.8852 17.64C57.8852 18.2533 57.6452 18.76 57.1652 19.16C56.6985 19.56 56.0652 19.76 55.2652 19.76C54.6118 19.76 54.0452 19.6133 53.5652 19.32C53.0985 19.04 52.8652 18.7 52.8652 18.3C52.8652 17.9267 52.9918 17.66 53.2452 17.5C53.6318 18.02 54.2185 18.28 55.0052 18.28C55.3385 18.28 55.5918 18.2133 55.7652 18.08C55.9385 17.96 56.0252 17.7933 56.0252 17.58C56.0252 17.34 55.9252 17.16 55.7252 17.04C55.5385 16.92 55.2785 16.86 54.9452 16.86C54.6518 16.86 54.3852 16.9 54.1452 16.98C53.9718 17.0333 53.8185 17 53.6852 16.88C53.5518 16.7733 53.4852 16.6267 53.4852 16.44C53.4852 16.32 53.5185 16.2067 53.5852 16.1L54.2452 15.1C53.2185 14.9267 52.3918 14.52 51.7652 13.88C51.1518 13.2267 50.8452 12.4333 50.8452 11.5V8.7C50.8452 7.94 51.0318 7.26667 51.4052 6.68C51.7785 6.09333 52.2985 5.64 52.9652 5.32C53.6318 4.98667 54.3918 4.82 55.2452 4.82C56.0452 4.82 56.7518 4.93333 57.3652 5.16C57.9918 5.38667 58.4785 5.70667 58.8252 6.12C59.1718 6.52 59.3452 6.98667 59.3452 7.52C59.3452 7.93333 59.1852 8.26667 58.8652 8.52C58.5452 8.77333 58.1252 8.9 57.6052 8.9C57.4585 8.9 57.3518 8.89333 57.2852 8.88C57.2852 8.30667 57.0985 7.84667 56.7252 7.5C56.3652 7.15333 55.8918 6.98 55.3052 6.98C54.7185 6.98 54.2385 7.14667 53.8652 7.48C53.5052 7.81333 53.3252 8.25333 53.3252 8.8V11.32C53.3252 11.8267 53.5118 12.24 53.8852 12.56C54.2585 12.8667 54.7385 13.02 55.3252 13.02C55.9118 13.02 56.3918 12.8467 56.7652 12.5C57.1385 12.14 57.3252 11.6867 57.3252 11.14C57.4052 11.1267 57.5185 11.12 57.6652 11.12C58.1852 11.12 58.6052 11.24 58.9252 11.48C59.2452 11.72 59.4052 12.0467 59.4052 12.46ZM64.3438 15.18C63.6638 15.18 63.0371 15.0467 62.4638 14.78C61.9038 14.5133 61.4504 14.1333 61.1038 13.64C60.7704 13.1333 60.6038 12.5333 60.6038 11.84C60.6038 11.1467 60.7838 10.5467 61.1438 10.04C61.5038 9.52 61.9904 9.12667 62.6038 8.86C63.2304 8.58 63.9171 8.44 64.6638 8.44C65.2771 8.44 65.8238 8.54 66.3038 8.74C66.7971 8.92667 67.2504 9.21333 67.6638 9.6L67.7638 9.5C67.6438 9.38 67.4371 9.2 67.1438 8.96V8.56C67.1438 8.01333 66.9504 7.58 66.5638 7.26C66.1771 6.94 65.6371 6.78 64.9438 6.78C63.7038 6.78 62.7904 7.23333 62.2038 8.14C61.9104 8.04667 61.6638 7.9 61.4638 7.7C61.2637 7.48667 61.1637 7.26 61.1637 7.02C61.1637 6.62 61.3438 6.25333 61.7038 5.92C62.0638 5.58667 62.5504 5.32 63.1638 5.12C63.7771 4.92 64.4438 4.82 65.1638 4.82C66.5771 4.82 67.6704 5.15333 68.4438 5.82C69.2171 6.47333 69.6038 7.36667 69.6038 8.5V13.5C69.6038 14.0867 69.4171 14.5133 69.0438 14.78C68.6704 15.0467 68.0838 15.18 67.2838 15.18V14.36C67.5104 14.1333 67.6638 13.9667 67.7438 13.86L67.6638 13.76C67.2238 14.2267 66.7504 14.58 66.2438 14.82C65.7504 15.06 65.1171 15.18 64.3438 15.18ZM64.9837 13.36C65.6771 13.36 66.2171 13.2267 66.6038 12.96C66.9904 12.6933 67.1838 12.3133 67.1838 11.82C67.1838 11.34 66.9838 10.96 66.5838 10.68C66.1971 10.4 65.6704 10.26 65.0038 10.26C64.3904 10.26 63.9038 10.4 63.5438 10.68C63.1971 10.9467 63.0238 11.3267 63.0238 11.82C63.0238 12.3267 63.1971 12.7133 63.5438 12.98C63.8904 13.2333 64.3704 13.36 64.9837 13.36ZM75.6111 15.18C74.3311 15.18 73.2978 14.9533 72.5111 14.5C71.7378 14.0333 71.3444 13.4133 71.3311 12.64C71.3311 12.3067 71.4644 12.0267 71.7311 11.8C72.0111 11.5733 72.4511 11.4533 73.0511 11.44C73.1711 12.0267 73.4511 12.48 73.8911 12.8C74.3311 13.1067 74.8644 13.26 75.4911 13.26C76.1711 13.26 76.7044 13.1733 77.0911 13C77.4778 12.8267 77.6711 12.5667 77.6711 12.22C77.6711 11.9 77.5111 11.6333 77.1911 11.42C76.8844 11.2067 76.2711 10.9933 75.3511 10.78C74.3511 10.54 73.5711 10.3 73.0111 10.06C72.4644 9.82 72.0578 9.51333 71.7911 9.14C71.5244 8.76667 71.3911 8.27333 71.3911 7.66C71.3911 6.80667 71.7511 6.12 72.4711 5.6C73.1911 5.08 74.1778 4.82 75.4311 4.82C76.6444 4.82 77.6511 5.04 78.4511 5.48C79.2511 5.90667 79.6511 6.48 79.6511 7.2C79.6511 7.56 79.5178 7.82667 79.2511 8C78.9844 8.17333 78.5444 8.26667 77.9311 8.28C77.7978 7.74667 77.5444 7.34667 77.1711 7.08C76.7978 6.81333 76.2711 6.68 75.5911 6.68C75.0844 6.68 74.6444 6.76667 74.2711 6.94C73.9111 7.11333 73.7311 7.34 73.7311 7.62C73.7311 7.91333 73.8844 8.14 74.1911 8.3C74.4978 8.46 75.0311 8.62 75.7911 8.78C77.2844 9.1 78.3644 9.52667 79.0311 10.06C79.7111 10.5933 80.0511 11.32 80.0511 12.24C80.0511 13.1333 79.6511 13.8467 78.8511 14.38C78.0644 14.9133 76.9844 15.18 75.6111 15.18ZM91.0603 15.18C89.7803 15.18 88.747 14.9533 87.9603 14.5C87.187 14.0333 86.7936 13.4133 86.7803 12.64C86.7803 12.3067 86.9136 12.0267 87.1803 11.8C87.4603 11.5733 87.9003 11.4533 88.5003 11.44C88.6203 12.0267 88.9003 12.48 89.3403 12.8C89.7803 13.1067 90.3136 13.26 90.9403 13.26C91.6203 13.26 92.1536 13.1733 92.5403 13C92.927 12.8267 93.1203 12.5667 93.1203 12.22C93.1203 11.9 92.9603 11.6333 92.6403 11.42C92.3336 11.2067 91.7203 10.9933 90.8003 10.78C89.8003 10.54 89.0203 10.3 88.4603 10.06C87.9136 9.82 87.507 9.51333 87.2403 9.14C86.9736 8.76667 86.8403 8.27333 86.8403 7.66C86.8403 6.80667 87.2003 6.12 87.9203 5.6C88.6403 5.08 89.627 4.82 90.8803 4.82C92.0936 4.82 93.1003 5.04 93.9003 5.48C94.7003 5.90667 95.1003 6.48 95.1003 7.2C95.1003 7.56 94.967 7.82667 94.7003 8C94.4336 8.17333 93.9936 8.26667 93.3803 8.28C93.247 7.74667 92.9936 7.34667 92.6203 7.08C92.247 6.81333 91.7203 6.68 91.0403 6.68C90.5336 6.68 90.0936 6.76667 89.7203 6.94C89.3603 7.11333 89.1803 7.34 89.1803 7.62C89.1803 7.91333 89.3336 8.14 89.6403 8.3C89.947 8.46 90.4803 8.62 91.2403 8.78C92.7336 9.1 93.8136 9.52667 94.4803 10.06C95.1603 10.5933 95.5003 11.32 95.5003 12.24C95.5003 13.1333 95.1003 13.8467 94.3003 14.38C93.5136 14.9133 92.4336 15.18 91.0603 15.18ZM101.653 15.18C100.827 15.18 100.073 15.02 99.3933 14.7C98.7133 14.3667 98.1733 13.92 97.7733 13.36C97.3733 12.7867 97.1733 12.1467 97.1733 11.44V8.78C97.1733 8.03333 97.3799 7.36 97.7933 6.76C98.2066 6.16 98.7533 5.68667 99.4333 5.34C100.127 4.99333 100.873 4.82 101.673 4.82C102.46 4.82 103.18 4.98667 103.833 5.32C104.5 5.64 105.027 6.09333 105.413 6.68C105.8 7.25333 105.993 7.91333 105.993 8.66V9.78C105.993 10.0733 105.88 10.32 105.653 10.52C105.44 10.72 105.167 10.82 104.833 10.82H99.5933V11.26C99.5933 11.8333 99.7666 12.3 100.113 12.66C100.46 13.02 100.98 13.2 101.673 13.2C102.34 13.2 102.833 13.0533 103.153 12.76C103.487 12.4667 103.653 12.0867 103.653 11.62C103.893 11.5933 104.06 11.58 104.153 11.58C104.647 11.58 105.033 11.6933 105.313 11.92C105.593 12.1333 105.733 12.44 105.733 12.84C105.733 13.2267 105.553 13.6 105.193 13.96C104.833 14.32 104.34 14.6133 103.713 14.84C103.087 15.0667 102.4 15.18 101.653 15.18ZM103.733 9.04V8.66C103.733 8.1 103.54 7.64667 103.153 7.3C102.767 6.95333 102.267 6.78 101.653 6.78C101.04 6.78 100.54 6.95333 100.153 7.3C99.7799 7.63333 99.5933 8.08667 99.5933 8.66V9.04H103.733ZM107.918 6.74C107.918 6.12667 108.112 5.65333 108.498 5.32C108.885 4.98667 109.472 4.82 110.258 4.82V6.02C110.018 6.31333 109.858 6.52667 109.778 6.66L109.918 6.74C110.332 6.11333 110.772 5.64 111.238 5.32C111.705 4.98667 112.258 4.82 112.898 4.82C114.058 4.82 114.858 5.38667 115.298 6.52C115.632 5.98667 116.058 5.57333 116.578 5.28C117.098 4.97333 117.685 4.82 118.338 4.82C119.245 4.82 119.965 5.15333 120.498 5.82C121.045 6.47333 121.318 7.31333 121.318 8.34V13.66C121.318 14.1933 121.112 14.58 120.698 14.82C120.298 15.06 119.685 15.18 118.858 15.18V8.54C118.858 8.04667 118.745 7.65333 118.518 7.36C118.305 7.06667 117.972 6.92 117.518 6.92C117.038 6.92 116.632 7.08667 116.298 7.42C115.978 7.74 115.818 8.24667 115.818 8.94V13.66C115.818 14.1933 115.618 14.58 115.218 14.82C114.832 15.06 114.225 15.18 113.398 15.18V8.54C113.398 8.03333 113.292 7.64 113.078 7.36C112.865 7.06667 112.532 6.92 112.078 6.92C111.518 6.92 111.092 7.11333 110.798 7.5C110.518 7.87333 110.378 8.38667 110.378 9.04V13.66C110.378 14.1933 110.172 14.58 109.758 14.82C109.358 15.06 108.745 15.18 107.918 15.18V6.74ZM132.02 15.18C131.34 15.18 130.713 15.0467 130.14 14.78C129.58 14.5133 129.126 14.1333 128.78 13.64C128.446 13.1333 128.28 12.5333 128.28 11.84C128.28 11.1467 128.46 10.5467 128.82 10.04C129.18 9.52 129.666 9.12667 130.28 8.86C130.906 8.58 131.593 8.44 132.34 8.44C132.953 8.44 133.5 8.54 133.98 8.74C134.473 8.92667 134.926 9.21333 135.34 9.6L135.44 9.5C135.32 9.38 135.113 9.2 134.82 8.96V8.56C134.82 8.01333 134.626 7.58 134.24 7.26C133.853 6.94 133.313 6.78 132.62 6.78C131.38 6.78 130.466 7.23333 129.88 8.14C129.586 8.04667 129.34 7.9 129.14 7.7C128.94 7.48667 128.84 7.26 128.84 7.02C128.84 6.62 129.02 6.25333 129.38 5.92C129.74 5.58667 130.226 5.32 130.84 5.12C131.453 4.92 132.12 4.82 132.84 4.82C134.253 4.82 135.346 5.15333 136.12 5.82C136.893 6.47333 137.28 7.36667 137.28 8.5V13.5C137.28 14.0867 137.093 14.5133 136.72 14.78C136.346 15.0467 135.76 15.18 134.96 15.18V14.36C135.186 14.1333 135.34 13.9667 135.42 13.86L135.34 13.76C134.9 14.2267 134.426 14.58 133.92 14.82C133.426 15.06 132.793 15.18 132.02 15.18ZM132.66 13.36C133.353 13.36 133.893 13.2267 134.28 12.96C134.666 12.6933 134.86 12.3133 134.86 11.82C134.86 11.34 134.66 10.96 134.26 10.68C133.873 10.4 133.346 10.26 132.68 10.26C132.066 10.26 131.58 10.4 131.22 10.68C130.873 10.9467 130.7 11.3267 130.7 11.82C130.7 12.3267 130.873 12.7133 131.22 12.98C131.566 13.2333 132.046 13.36 132.66 13.36ZM139.52 6.74C139.52 6.12667 139.713 5.65333 140.1 5.32C140.5 4.98667 141.1 4.82 141.9 4.82V6.02C141.74 6.20667 141.58 6.42 141.42 6.66L141.54 6.74C141.94 6.14 142.453 5.67333 143.08 5.34C143.707 4.99333 144.4 4.82 145.16 4.82C145.84 4.82 146.44 4.97333 146.96 5.28C147.48 5.58667 147.88 6.00667 148.16 6.54C148.453 7.07333 148.6 7.67333 148.6 8.34V13.66C148.6 14.1933 148.393 14.58 147.98 14.82C147.567 15.06 146.94 15.18 146.1 15.18V8.7C146.1 8.19333 145.947 7.78 145.64 7.46C145.347 7.14 144.913 6.98 144.34 6.98C143.66 6.98 143.1 7.19333 142.66 7.62C142.22 8.03333 142 8.55333 142 9.18V13.66C142 14.1933 141.8 14.58 141.4 14.82C141 15.06 140.373 15.18 139.52 15.18V6.74ZM154.888 15.18C153.608 15.18 152.575 14.9533 151.788 14.5C151.015 14.0333 150.622 13.4133 150.608 12.64C150.608 12.3067 150.742 12.0267 151.008 11.8C151.288 11.5733 151.728 11.4533 152.328 11.44C152.448 12.0267 152.728 12.48 153.168 12.8C153.608 13.1067 154.142 13.26 154.768 13.26C155.448 13.26 155.982 13.1733 156.368 13C156.755 12.8267 156.948 12.5667 156.948 12.22C156.948 11.9 156.788 11.6333 156.468 11.42C156.162 11.2067 155.548 10.9933 154.628 10.78C153.628 10.54 152.848 10.3 152.288 10.06C151.742 9.82 151.335 9.51333 151.068 9.14C150.802 8.76667 150.668 8.27333 150.668 7.66C150.668 6.80667 151.028 6.12 151.748 5.6C152.468 5.08 153.455 4.82 154.708 4.82C155.922 4.82 156.928 5.04 157.728 5.48C158.528 5.90667 158.928 6.48 158.928 7.2C158.928 7.56 158.795 7.82667 158.528 8C158.262 8.17333 157.822 8.26667 157.208 8.28C157.075 7.74667 156.822 7.34667 156.448 7.08C156.075 6.81333 155.548 6.68 154.868 6.68C154.362 6.68 153.922 6.76667 153.548 6.94C153.188 7.11333 153.008 7.34 153.008 7.62C153.008 7.91333 153.162 8.14 153.468 8.3C153.775 8.46 154.308 8.62 155.068 8.78C156.562 9.1 157.642 9.52667 158.308 10.06C158.988 10.5933 159.328 11.32 159.328 12.24C159.328 13.1333 158.928 13.8467 158.128 14.38C157.342 14.9133 156.262 15.18 154.888 15.18ZM162.781 3.88C162.301 3.88 161.901 3.74 161.581 3.46C161.275 3.16667 161.121 2.79333 161.121 2.34C161.121 1.9 161.275 1.54 161.581 1.26C161.901 0.966666 162.301 0.819999 162.781 0.819999C163.261 0.819999 163.655 0.966666 163.961 1.26C164.281 1.54 164.441 1.9 164.441 2.34C164.441 2.79333 164.281 3.16667 163.961 3.46C163.655 3.74 163.261 3.88 162.781 3.88ZM161.521 6.34C161.521 5.79333 161.728 5.40667 162.141 5.18C162.555 4.94 163.181 4.82 164.021 4.82V13.66C164.021 14.1933 163.815 14.58 163.401 14.82C162.988 15.06 162.361 15.18 161.521 15.18V6.34ZM171.165 15.18C170.338 15.18 169.585 15.02 168.905 14.7C168.225 14.3667 167.685 13.92 167.285 13.36C166.885 12.7867 166.685 12.1467 166.685 11.44V8.78C166.685 8.03333 166.892 7.36 167.305 6.76C167.718 6.16 168.265 5.68667 168.945 5.34C169.638 4.99333 170.385 4.82 171.185 4.82C171.972 4.82 172.692 4.98667 173.345 5.32C174.012 5.64 174.538 6.09333 174.925 6.68C175.312 7.25333 175.505 7.91333 175.505 8.66V9.78C175.505 10.0733 175.392 10.32 175.165 10.52C174.952 10.72 174.678 10.82 174.345 10.82H169.105V11.26C169.105 11.8333 169.278 12.3 169.625 12.66C169.972 13.02 170.492 13.2 171.185 13.2C171.852 13.2 172.345 13.0533 172.665 12.76C172.998 12.4667 173.165 12.0867 173.165 11.62C173.405 11.5933 173.572 11.58 173.665 11.58C174.158 11.58 174.545 11.6933 174.825 11.92C175.105 12.1333 175.245 12.44 175.245 12.84C175.245 13.2267 175.065 13.6 174.705 13.96C174.345 14.32 173.852 14.6133 173.225 14.84C172.598 15.0667 171.912 15.18 171.165 15.18ZM173.245 9.04V8.66C173.245 8.1 173.052 7.64667 172.665 7.3C172.278 6.95333 171.778 6.78 171.165 6.78C170.552 6.78 170.052 6.95333 169.665 7.3C169.292 7.63333 169.105 8.08667 169.105 8.66V9.04H173.245ZM181.11 15.18C180.39 15.18 179.743 15.0267 179.17 14.72C178.597 14.4133 178.143 13.9933 177.81 13.46C177.477 12.9133 177.31 12.2867 177.31 11.58V8.42C177.31 7.72667 177.483 7.10667 177.83 6.56C178.177 6.01333 178.657 5.58667 179.27 5.28C179.897 4.97333 180.59 4.82 181.35 4.82C181.843 4.82 182.35 4.92667 182.87 5.14C183.403 5.34 183.85 5.61333 184.21 5.96L184.29 5.86C184.223 5.75333 184.077 5.62 183.85 5.46V2.5C183.85 1.96667 184.057 1.55333 184.47 1.26C184.897 0.966666 185.537 0.819999 186.39 0.819999V13.46C186.39 13.9533 186.203 14.3667 185.83 14.7C185.457 15.02 184.877 15.18 184.09 15.18V14.08C184.263 13.8667 184.39 13.6933 184.47 13.56L184.37 13.48C183.957 14.04 183.497 14.4667 182.99 14.76C182.497 15.04 181.87 15.18 181.11 15.18ZM181.85 13.02C182.45 13.02 182.937 12.88 183.31 12.6C183.697 12.3067 183.89 11.94 183.89 11.5V8.48C183.89 8.05333 183.697 7.7 183.31 7.42C182.937 7.12667 182.443 6.98 181.83 6.98C181.177 6.98 180.67 7.12 180.31 7.4C179.963 7.66667 179.79 8.05333 179.79 8.56V11.4C179.79 11.9333 179.963 12.34 180.31 12.62C180.67 12.8867 181.183 13.02 181.85 13.02ZM192.059 15.18C191.379 15.18 190.752 15.0467 190.179 14.78C189.619 14.5133 189.165 14.1333 188.819 13.64C188.485 13.1333 188.319 12.5333 188.319 11.84C188.319 11.1467 188.499 10.5467 188.859 10.04C189.219 9.52 189.705 9.12667 190.319 8.86C190.945 8.58 191.632 8.44 192.379 8.44C192.992 8.44 193.539 8.54 194.019 8.74C194.512 8.92667 194.965 9.21333 195.379 9.6L195.479 9.5C195.359 9.38 195.152 9.2 194.859 8.96V8.56C194.859 8.01333 194.665 7.58 194.279 7.26C193.892 6.94 193.352 6.78 192.659 6.78C191.419 6.78 190.505 7.23333 189.919 8.14C189.625 8.04667 189.379 7.9 189.179 7.7C188.979 7.48667 188.879 7.26 188.879 7.02C188.879 6.62 189.059 6.25333 189.419 5.92C189.779 5.58667 190.265 5.32 190.879 5.12C191.492 4.92 192.159 4.82 192.879 4.82C194.292 4.82 195.385 5.15333 196.159 5.82C196.932 6.47333 197.319 7.36667 197.319 8.5V13.5C197.319 14.0867 197.132 14.5133 196.759 14.78C196.385 15.0467 195.799 15.18 194.999 15.18V14.36C195.225 14.1333 195.379 13.9667 195.459 13.86L195.379 13.76C194.939 14.2267 194.465 14.58 193.959 14.82C193.465 15.06 192.832 15.18 192.059 15.18ZM192.699 13.36C193.392 13.36 193.932 13.2267 194.319 12.96C194.705 12.6933 194.899 12.3133 194.899 11.82C194.899 11.34 194.699 10.96 194.299 10.68C193.912 10.4 193.385 10.26 192.719 10.26C192.105 10.26 191.619 10.4 191.259 10.68C190.912 10.9467 190.739 11.3267 190.739 11.82C190.739 12.3267 190.912 12.7133 191.259 12.98C191.605 13.2333 192.085 13.36 192.699 13.36ZM203.239 15.18C202.519 15.18 201.872 15.0267 201.299 14.72C200.726 14.4133 200.272 13.9933 199.939 13.46C199.606 12.9133 199.439 12.2867 199.439 11.58V8.42C199.439 7.72667 199.612 7.10667 199.959 6.56C200.306 6.01333 200.786 5.58667 201.399 5.28C202.026 4.97333 202.719 4.82 203.479 4.82C203.972 4.82 204.479 4.92667 204.999 5.14C205.532 5.34 205.979 5.61333 206.339 5.96L206.419 5.86C206.352 5.75333 206.206 5.62 205.979 5.46V2.5C205.979 1.96667 206.186 1.55333 206.599 1.26C207.026 0.966666 207.666 0.819999 208.519 0.819999V13.46C208.519 13.9533 208.332 14.3667 207.959 14.7C207.586 15.02 207.006 15.18 206.219 15.18V14.08C206.392 13.8667 206.519 13.6933 206.599 13.56L206.499 13.48C206.086 14.04 205.626 14.4667 205.119 14.76C204.626 15.04 203.999 15.18 203.239 15.18ZM203.979 13.02C204.579 13.02 205.066 12.88 205.439 12.6C205.826 12.3067 206.019 11.94 206.019 11.5V8.48C206.019 8.05333 205.826 7.7 205.439 7.42C205.066 7.12667 204.572 6.98 203.959 6.98C203.306 6.98 202.799 7.12 202.439 7.4C202.092 7.66667 201.919 8.05333 201.919 8.56V11.4C201.919 11.9333 202.092 12.34 202.439 12.62C202.799 12.8867 203.312 13.02 203.979 13.02ZM215.228 15.18C214.401 15.18 213.648 15.02 212.968 14.7C212.288 14.3667 211.748 13.92 211.348 13.36C210.948 12.7867 210.748 12.1467 210.748 11.44V8.78C210.748 8.03333 210.954 7.36 211.368 6.76C211.781 6.16 212.328 5.68667 213.008 5.34C213.701 4.99333 214.448 4.82 215.248 4.82C216.034 4.82 216.754 4.98667 217.408 5.32C218.074 5.64 218.601 6.09333 218.988 6.68C219.374 7.25333 219.568 7.91333 219.568 8.66V9.78C219.568 10.0733 219.454 10.32 219.228 10.52C219.014 10.72 218.741 10.82 218.408 10.82H213.168V11.26C213.168 11.8333 213.341 12.3 213.688 12.66C214.034 13.02 214.554 13.2 215.248 13.2C215.914 13.2 216.408 13.0533 216.728 12.76C217.061 12.4667 217.228 12.0867 217.228 11.62C217.468 11.5933 217.634 11.58 217.728 11.58C218.221 11.58 218.608 11.6933 218.888 11.92C219.168 12.1333 219.308 12.44 219.308 12.84C219.308 13.2267 219.128 13.6 218.768 13.96C218.408 14.32 217.914 14.6133 217.288 14.84C216.661 15.0667 215.974 15.18 215.228 15.18ZM217.308 9.04V8.66C217.308 8.1 217.114 7.64667 216.728 7.3C216.341 6.95333 215.841 6.78 215.228 6.78C214.614 6.78 214.114 6.95333 213.728 7.3C213.354 7.63333 213.168 8.08667 213.168 8.66V9.04H217.308Z" fill="#2414FF"/>
</svg>
